<svg width="40" height="40" viewBox="0 0 40 40" fill="none" xmlns="http://www.w3.org/2000/svg">
<path d="M0 7.5C0 6.11719 1.11719 5 2.5 5H32.5C33.8828 5 35 6.11719 35 7.5C35 8.88281 33.8828 10 32.5 10H2.5C1.11719 10 0 8.88281 0 7.5ZM5 20C5 18.6172 6.11719 17.5 7.5 17.5H37.5C38.8828 17.5 40 18.6172 40 20C40 21.3828 38.8828 22.5 37.5 22.5H7.5C6.11719 22.5 5 21.3828 5 20ZM35 32.5C35 33.8828 33.8828 35 32.5 35H2.5C1.11719 35 0 33.8828 0 32.5C0 31.1172 1.11719 30 2.5 30H32.5C33.8828 30 35 31.1172 35 32.5Z" fill="white"/>
</svg>
