<svg width="21" height="21" viewBox="0 0 21 21" fill="none" xmlns="http://www.w3.org/2000/svg">
<g clip-path="url(#clip0_1_23)">
<path d="M11.4844 -0.000265375C16.7385 -0.000265375 21 4.26126 21 9.51536C21 10.0609 20.5611 10.4997 20.0156 10.4997C19.4701 10.4997 19.0312 10.0609 19.0312 9.51536C19.0312 5.34817 15.6516 1.96848 11.4844 1.96848C10.9389 1.96848 10.5 1.52962 10.5 0.98411C10.5 0.438602 10.9389 -0.000265375 11.4844 -0.000265375ZM11.8125 7.87473C12.1606 7.87473 12.4944 8.01302 12.7406 8.25916C12.9867 8.5053 13.125 8.83914 13.125 9.18723C13.125 9.53533 12.9867 9.86917 12.7406 10.1153C12.4944 10.3615 12.1606 10.4997 11.8125 10.4997C11.4644 10.4997 11.1306 10.3615 10.8844 10.1153C10.6383 9.86917 10.5 9.53533 10.5 9.18723C10.5 8.83914 10.6383 8.5053 10.8844 8.25916C11.1306 8.01302 11.4644 7.87473 11.8125 7.87473ZM10.5 4.92161C10.5 4.3761 10.9389 3.93723 11.4844 3.93723C14.5646 3.93723 17.0625 6.43509 17.0625 9.51536C17.0625 10.0609 16.6236 10.4997 16.0781 10.4997C15.5326 10.4997 15.0938 10.0609 15.0938 9.51536C15.0938 7.522 13.4777 5.90598 11.4844 5.90598C10.9389 5.90598 10.5 5.46712 10.5 4.92161ZM4.81934 0.0571565C5.61504 -0.160226 6.44766 0.245828 6.76348 1.00872L8.4041 4.94622C8.68301 5.61477 8.49023 6.38997 7.92832 6.84524L5.90625 8.50227C7.27207 11.3898 9.60996 13.7277 12.4975 15.0935L14.1504 13.0714C14.6098 12.5095 15.3809 12.3167 16.0494 12.5956L19.9869 14.2363C20.7498 14.5521 21.1559 15.3847 20.9385 16.1804L19.9541 19.7898C19.7613 20.5034 19.1133 20.9997 18.375 20.9997C8.22773 20.9997 0 12.772 0 2.62473C0 1.88645 0.496289 1.23841 1.20996 1.04153L4.81934 0.0571565Z" fill="white"/>
</g>
<defs>
<clipPath id="clip0_1_23">
<rect width="21" height="21" fill="white"/>
</clipPath>
</defs>
</svg>
